HIERARCHY
ROOT Hips
{
  OFFSET 51.7014 83.9591 5.04015
  CHANNELS 6 Xposition Yposition Zposition Zrotation Xrotation Yrotation
  JOINT spine
  {
    OFFSET 0 5.95438 0.342407
    CHANNELS 3 Zrotation Xrotation Yrotation
    JOINT spine1
    {
      OFFSET 0 8.85602 0
      CHANNELS 3 Zrotation Xrotation Yrotation
      JOINT spine2
      {
        OFFSET 0 8.48567 0
        CHANNELS 3 Zrotation Xrotation Yrotation
        JOINT Neck
        {
          OFFSET 0 21.7863 1.0387
          CHANNELS 3 Zrotation Xrotation Yrotation
          JOINT Head
          {
            OFFSET 0 6.5822 0
            CHANNELS 3 Zrotation Xrotation Yrotation
            End Site
            {
              OFFSET 0 15.9326 -5.25436
            }
          }
        }
        JOINT RightShoulder
        {
          OFFSET -3.57307 9.16386 -0.497525
          CHANNELS 3 Zrotation Xrotation Yrotation
          JOINT RightArm
          {
            OFFSET 0 12.0192 0
            CHANNELS 3 Zrotation Xrotation Yrotation
            JOINT RightArmRoll
            {
              OFFSET 0 6.06755 0
              CHANNELS 3 Zrotation Xrotation Yrotation
              JOINT RightForeArm
              {
                OFFSET 0 17.6726 0
                CHANNELS 3 Zrotation Xrotation Yrotation
                JOINT RightForeArmRoll
                {
                  OFFSET 0 6.80872 0
                  CHANNELS 3 Zrotation Xrotation Yrotation
                  JOINT RightHand
                  {
                    OFFSET 0 13.6636 0
                    CHANNELS 3 Zrotation Xrotation Yrotation
                    End Site
                    {
                      OFFSET 0 0 0
                    }
                  }
                }
              }
            }
          }
        }
        JOINT LeftShoulder
        {
          OFFSET 3.57307 9.16386 -0.497525
          CHANNELS 3 Zrotation Xrotation Yrotation
          JOINT LeftArm
          {
            OFFSET 0 12.0192 0
            CHANNELS 3 Zrotation Xrotation Yrotation
            JOINT LeftArmRoll
            {
              OFFSET 0 6.06755 0
              CHANNELS 3 Zrotation Xrotation Yrotation
              JOINT LeftForeArm
              {
                OFFSET 0 17.6726 0
                CHANNELS 3 Zrotation Xrotation Yrotation
                JOINT LeftForeArmRoll
                {
                  OFFSET 0 6.80872 0
                  CHANNELS 3 Zrotation Xrotation Yrotation
                  JOINT LeftHand
                  {
                    OFFSET 0 13.6636 0
                    CHANNELS 3 Zrotation Xrotation Yrotation
                    End Site
                    {
                      OFFSET 0 0 0
                    }
                  }
                }
              }
            }
          }
        }
      }
    }
  }
  JOINT RightUpLeg
  {
    OFFSET -5.27774 -0.967797 -0.811858
    CHANNELS 3 Zrotation Xrotation Yrotation
    JOINT RightUpLegRoll
    {
      OFFSET 0 16.0214 0
      CHANNELS 3 Zrotation Xrotation Yrotation
      JOINT RightLeg
      {
        OFFSET 0 -19.8401 0
        CHANNELS 3 Zrotation Xrotation Yrotation
        JOINT RightLegRoll
        {
          OFFSET 0 19.905 0
          CHANNELS 3 Zrotation Xrotation Yrotation
          JOINT RightFoot
          {
            OFFSET 0 16.5675 0
            CHANNELS 3 Zrotation Xrotation Yrotation
            JOINT RightToeBase
            {
              OFFSET 0 13.8496 0
              CHANNELS 3 Zrotation Xrotation Yrotation
              End Site
              {
                OFFSET 0.00587034 6.70728 -0.773117
              }
            }
          }
        }
      }
    }
  }
  JOINT LeftUpLeg
  {
    OFFSET 5.27774 -0.967797 -0.811858
    CHANNELS 3 Zrotation Xrotation Yrotation
    JOINT LeftUpLegRoll
    {
      OFFSET 0 16.0215 0
      CHANNELS 3 Zrotation Xrotation Yrotation
      JOINT LeftLeg
      {
        OFFSET 0 19.84 0
        CHANNELS 3 Zrotation Xrotation Yrotation
        JOINT LeftLegRoll
        {
          OFFSET 0 20.089 0
          CHANNELS 3 Zrotation Xrotation Yrotation
          JOINT LeftFoot
          {
            OFFSET 0 16.3835 0
            CHANNELS 3 Zrotation Xrotation Yrotation
            JOINT LeftToeBase
            {
              OFFSET 0 13.8496 0
              CHANNELS 3 Zrotation Xrotation Yrotation
              End Site
              {
                OFFSET -0.0263083 6.70727 -0.773117
              }
            }
          }
        }
      }
    }
  }
}
MOTION
Frames: 6
Frame Time: 0.00208333
54.5945 81.5988 11.6655 -0.901629 -0.33688 1.66953 -0.192793 -0.170042 0.11632 -0.387049 3.66225 0.257144 -0.390683 5.30727 0.263627 -14.9702 -2.76519 -6.71934 22.8563 -8.69448 -6.23692 53.6931 -4.53389 -2.35823 127.818 3.9935 -22.8384 3.77797e-007 2.02255e-006 7.73198e-008 -3.63944 -0.0256771 -1.99303 -1.40829e-006 2.25758e-006 -3.01161 8.03009 -4.95136 0.69763 -60.7655 -5.20418 3.30031 -120.501 13.9298 18.1861 2.8678e-006 5.1799e-007 2.55233e-006 3.63958 -0.0260001 1.99247 4.37802e-006 -3.56065e-006 3.0116 -8.03008 -4.95138 -0.697624 178.42 10.8879 2.53582 180 7.01509e-015 178.769 -179.813 33.5624 178.844 -2.69273e-006 2.77703e-007 1.04909 -28.5995 76.3132 30.4539 8.29117 28.8755 -2.2035 179.092 14.7558 2.52787 4.54188e-006 -4.67728e-006 -1.31916 2.11961 -36.5963 2.01161 5.31134e-006 -1.15917e-006 -1.03975 25.269 74.298 -26.7292 -8.44269 31.0213 2.74378 
54.547 81.1667 11.603 -1.04747 -0.264883 1.6211 -0.150428 -0.158221 0.118326 -0.302212 3.68601 0.255847 -0.305714 5.33103 0.260991 -15.0162 -2.83295 -6.72762 22.8188 -8.94925 -6.19652 53.4731 -4.61764 -2.40151 128.019 4.10433 -23.1002 3.77797e-007 2.02255e-006 7.73199e-008 -3.63944 -0.025676 -1.99303 -1.40829e-006 2.25758e-006 -3.01161 8.03009 -4.95136 0.69763 -60.8643 -5.31927 3.37562 -120.534 14.0856 18.276 2.8678e-006 5.1799e-007 2.55233e-006 3.63957 -0.0260036 1.99247 4.37802e-006 -3.56065e-006 3.0116 -8.03008 -4.95138 -0.697624 178.594 11.1232 2.50345 180 7.01509e-015 178.769 -179.893 34.1307 178.875 -2.69273e-006 2.77703e-007 1.11209 -30.2811 77.071 32.2356 8.29486 29.1879 -2.07774 179.244 15.3573 2.46365 4.54188e-006 -4.67728e-006 -1.33888 2.26225 -37.5701 2.12257 5.31134e-006 -1.15916e-006 -1.1194 26.3737 74.9762 -27.9105 -8.46205 31.5669 2.66673 
54.5041 81.0184 11.4507 -1.17334 -0.193423 1.58015 -0.109846 -0.143943 0.119987 -0.220951 3.71466 0.254057 -0.22432 5.35971 0.257914 -15.1085 -2.93215 -6.7507 22.814 -9.16637 -6.17645 53.2123 -4.70749 -2.44816 128.257 4.21187 -23.4019 3.77797e-007 2.02255e-006 7.73199e-008 -3.63944 -0.025675 -1.99303 -1.40829e-006 2.25758e-006 -3.01161 8.03009 -4.95136 0.69763 -60.9983 -5.42632 3.44774 -120.543 14.2582 18.3471 2.8678e-006 5.1799e-007 2.55233e-006 3.63957 -0.026007 1.99247 4.37802e-006 -3.56065e-006 3.0116 -8.03008 -4.95138 -0.697624 178.754 11.3857 2.46907 180 7.01509e-015 178.769 -179.955 34.7199 178.896 -2.69273e-006 2.77702e-007 1.17425 -32.1104 77.7896 34.1609 8.29627 29.4575 -1.96212 179.36 15.9601 2.42699 4.54188e-006 -4.67728e-006 -1.36057 2.41522 -38.5287 2.24182 5.31134e-006 -1.15916e-006 -1.1984 27.5132 75.6074 -29.1221 -8.47792 32.0643 2.59388 
54.4521 80.5706 11.3867 -1.27517 -0.123538 1.54812 -0.0715561 -0.126823 0.121241 -0.144287 3.749 0.25171 -0.147521 5.39405 0.254341 -15.254 -3.06612 -6.79059 22.8465 -9.33857 -6.17999 52.9056 -4.80383 -2.49838 128.536 4.31484 -23.748 3.77797e-007 2.02255e-006 7.73198e-008 -3.63944 -0.0256739 -1.99303 -1.40829e-006 2.25758e-006 -3.01161 8.03009 -4.95136 0.69763 -61.1717 -5.52299 3.51543 -120.523 14.4492 18.3966 2.8678e-006 5.1799e-007 2.55233e-006 3.63956 -0.0260104 1.99247 4.37802e-006 -3.56065e-006 3.0116 -8.03008 -4.95138 -0.697624 178.895 11.6776 2.43308 180 7.01509e-015 178.768 -179.994 35.3318 178.903 -2.69273e-006 2.77701e-007 1.23494 -34.0636 78.458 36.2044 8.29574 29.6751 -1.85953 179.43 16.5609 2.42282 4.54188e-006 -4.67729e-006 -1.38448 2.57922 -39.4673 2.36999 5.31134e-006 -1.15916e-006 -1.27617 28.6565 76.181 -30.3317 -8.49027 32.5015 2.52673 
54.4519 80.2564 11.271 -1.34892 -0.0562683 1.52645 -0.0360696 -0.106477 0.122028 -0.0732426 3.78977 0.24874 -0.0763401 5.43483 0.250219 -15.4598 -3.23819 -6.84933 22.9206 -9.4586 -6.21043 52.5476 -4.90706 -2.55238 128.861 4.41189 -24.1432 3.77797e-007 2.02255e-006 7.73199e-008 -3.63945 -0.0256728 -1.99303 -1.40829e-006 2.25758e-006 -3.01161 8.03009 -4.95136 0.69763 -61.3886 -5.60701 3.57744 -120.473 14.6604 18.4216 2.8678e-006 5.1799e-007 2.55233e-006 3.63955 -0.0260139 1.99247 4.37802e-006 -3.56065e-006 3.0116 -8.03008 -4.95138 -0.697624 179.014 12.001 2.3959 180 7.01508e-015 178.765 179.993 35.968 178.895 -2.69273e-006 2.77701e-007 1.29354 -36.1005 79.0666 38.3243 8.29369 29.8317 -1.77293 179.448 17.1563 2.4562 4.54188e-006 -4.6773e-006 -1.41086 2.75496 -40.3814 2.50768 5.31134e-006 -1.15916e-006 -1.35209 29.763 76.6872 -31.497 -8.49915 32.8666 2.46682 
54.4152 79.9003 11.1339 -1.39055 0.00734595 1.51657 -0.00389563 -0.0825187 0.122285 -0.00883748 3.83776 0.245084 -0.0117982 5.48283 0.245495 -15.7328 -3.45165 -6.92897 23.041 -9.51919 -6.27103 52.1329 -5.01755 -2.61035 129.237 4.50171 -24.592 3.77797e-007 2.02255e-006 7.73199e-008 -3.63945 -0.0256718 -1.99303 -1.40829e-006 2.25758e-006 -3.01161 8.03009 -4.95136 0.69763 -61.6532 -5.67607 3.63254 -120.388 14.8933 18.4195 2.8678e-006 5.1799e-007 2.55233e-006 3.63954 -0.0260174 1.99247 4.37802e-006 -3.56065e-006 3.0116 -8.03008 -4.95138 -0.697624 179.106 12.3579 2.35793 180 7.01507e-015 178.762 -179.989 36.6303 178.867 -2.69273e-006 2.77701e-007 1.34943 -38.1607 79.6071 40.4584 8.29056 29.918 -1.70527 179.404 17.7428 2.53222 4.54188e-006 -4.6773e-006 -1.43994 2.94307 -41.2664 2.65546 5.31134e-006 -1.15915e-006 -1.42558 30.7826 77.1166 -32.5667 -8.50465 33.1479 2.41573 
